<?xml version="1.0" standalone="no"?>
<!DOCTYPE svg PUBLIC "-//W3C//DTD SVG 20010904//EN"
 "http://www.w3.org/TR/2001/REC-SVG-20010904/DTD/svg10.dtd">
<svg version="1.0" xmlns="http://www.w3.org/2000/svg"
 width="306.000000pt" height="65.000000pt" viewBox="0 0 306.000000 65.000000"
 preserveAspectRatio="xMidYMid meet">

<g transform="translate(0.000000,65.000000) scale(0.100000,-0.100000)"
fill="#000000" stroke="none">
<path d="M314 526 c-17 -35 -17 -39 0 -87 11 -30 16 -63 13 -84 -5 -28 -2 -34
17 -39 27 -7 77 -109 80 -160 1 -25 -5 -33 -34 -48 l-35 -17 123 -1 c80 0 121
4 117 10 -3 5 -14 10 -24 10 -33 0 -60 45 -141 240 -45 107 -86 199 -90 204
-5 5 -16 -7 -26 -28z"/>
<path d="M570 542 c28 -14 47 -39 97 -132 59 -108 63 -119 63 -180 0 -79 -16
-114 -53 -118 -15 -2 -27 -8 -27 -13 0 -5 50 -9 115 -9 70 0 115 4 115 10 0 6
-11 10 -24 10 -41 0 -56 34 -56 123 0 76 -2 83 -51 173 -55 102 -59 134 -19
145 14 4 -24 7 -85 8 l-110 1 35 -18z"/>
<path d="M848 549 c30 -9 32 -13 32 -52 l0 -42 20 32 c10 18 36 41 57 52 l38
20 -90 0 c-73 -1 -84 -3 -57 -10z"/>
<path d="M1047 553 c47 -9 53 -34 53 -226 0 -177 -6 -217 -35 -217 -7 0 -17
-4 -20 -10 -4 -6 18 -10 59 -10 l66 0 0 235 0 235 -72 -1 c-40 -1 -63 -4 -51
-6z"/>
<path d="M1325 545 c47 -17 84 -55 92 -96 10 -53 23 -30 23 41 l0 70 -77 0
-78 -1 40 -14z"/>
<path d="M1806 544 c-5 -12 -14 -15 -35 -11 l-28 6 28 -30 c15 -16 31 -46 37
-66 9 -35 10 -31 11 40 1 78 -2 90 -13 61z"/>
<path d="M1912 548 c42 -15 50 -59 46 -244 -3 -168 -10 -194 -49 -194 -11 0
-19 -4 -19 -10 0 -6 40 -10 100 -10 55 0 100 4 100 9 0 5 -10 11 -22 13 -31 4
-48 43 -48 111 0 63 21 96 63 98 18 0 16 3 -11 12 -44 16 -52 31 -52 97 0 78
9 100 44 116 29 12 23 13 -74 13 -82 0 -99 -3 -78 -11z"/>
<path d="M2217 550 c34 -14 44 -44 41 -123 -3 -69 -4 -73 -34 -87 l-30 -16 30
-14 c30 -14 31 -18 34 -84 3 -72 -13 -116 -43 -116 -8 0 -15 -4 -15 -10 0 -6
40 -10 101 -10 64 0 98 4 94 10 -3 6 -15 10 -25 10 -34 0 -40 33 -40 223 0
197 2 207 55 220 11 2 -27 5 -85 5 -70 1 -98 -2 -83 -8z"/>
<path d="M2714 526 c-17 -35 -17 -39 0 -87 11 -30 16 -63 13 -84 -5 -28 -2
-34 17 -39 27 -7 77 -109 80 -160 1 -25 -5 -33 -34 -48 l-35 -17 123 -1 c80 0
121 4 117 10 -3 5 -14 10 -24 10 -33 0 -60 45 -141 240 -45 107 -86 199 -90
204 -5 5 -16 -7 -26 -28z"/>
<path d="M1511 515 c-43 -55 -34 -137 18 -175 16 -10 66 -33 112 -50 149 -54
182 -89 145 -154 l-18 -31 26 24 c14 13 30 39 36 58 26 77 -20 132 -148 177
-141 49 -182 90 -150 147 21 36 7 38 -21 4z"/>
<path d="M1346 385 c-4 -14 -20 -34 -37 -44 l-31 -19 23 -13 c25 -13 40 -31
51 -64 3 -11 6 22 7 73 1 95 -2 111 -13 67z"/>
<path d="M1491 195 c0 -76 3 -103 9 -87 12 29 30 35 66 22 l29 -11 -26 28
c-31 33 -48 63 -65 118 -12 37 -13 33 -13 -70z"/>
<path d="M155 201 c-25 -50 -66 -91 -91 -91 -8 0 -14 -4 -14 -10 0 -6 35 -10
85 -10 50 0 85 4 85 10 0 6 -7 10 -15 10 -8 0 -22 11 -31 25 -15 22 -15 29 -1
70 9 25 14 45 12 45 -3 0 -16 -22 -30 -49z"/>
<path d="M2555 201 c-25 -50 -66 -91 -91 -91 -8 0 -14 -4 -14 -10 0 -6 35 -10
85 -10 50 0 85 4 85 10 0 6 -7 10 -15 10 -8 0 -22 11 -31 25 -15 22 -15 29 -1
70 9 25 14 45 12 45 -3 0 -16 -22 -30 -49z"/>
<path d="M1420 214 c0 -32 -36 -75 -80 -97 l-45 -22 59 -3 c32 -2 65 -1 72 2
17 6 20 136 4 136 -5 0 -10 -7 -10 -16z"/>
</g>
</svg>
